<svg xmlns="http://www.w3.org/2000/svg" viewBox="0 0 800 450">
  <defs>
    <linearGradient id="bg" x1="0" y1="0" x2="1" y2="1">
      <stop offset="0" stop-color="#4F46E5"/>
      <stop offset="1" stop-color="#7C5CFC"/>
    </linearGradient>
    <pattern id="grid" width="24" height="24" patternUnits="userSpaceOnUse">
      <path d="M24,0 H0 V24" fill="none" stroke="#ffffff" stroke-opacity="0.09" stroke-width="1"/>
    </pattern>
    <marker id="arrow" viewBox="0 0 10 10" refX="8" refY="5" markerWidth="6" markerHeight="6" orient="auto-start-reverse">
      <path d="M0,0 L10,5 L0,10 z" fill="#ffffff" fill-opacity="0.95"/>
    </marker>
  </defs>
  <rect width="800" height="450" fill="url(#bg)"/>
  <rect width="800" height="450" fill="url(#grid)"/>
  <text x="30.0" y="32.0" text-anchor="start" font-family="Poppins, Arial, sans-serif" font-size="10.5" font-weight="700" fill="#ffffff" opacity="0.9" letter-spacing="1.6">ARCHITECTURE · RETAIL SUPPLY-CHAIN DELIVERY FORECASTING</text>

  <g>
<rect x="30" y="52" width="748" height="180" rx="14" fill="#ffffff" fill-opacity="0.06" stroke="#ffffff" stroke-opacity="0.45" stroke-width="1.2" stroke-dasharray="6 5"/>
<text x="44.0" y="70.0" text-anchor="start" font-family="Poppins, Arial, sans-serif" font-size="9.5" font-weight="700" fill="#ffffff" opacity="0.85" letter-spacing="1.2">SUPPLY-CHAIN FORECASTING</text>
<path d="M50.0,119.0 v52 a70.0,7 0 0 0 140,0 v-52" fill="#ffffff" fill-opacity="0.17" stroke="#ffffff" stroke-opacity="0.65" stroke-width="1.4"/>
<ellipse cx="120" cy="119.0" rx="70.0" ry="7" fill="#ffffff" fill-opacity="0.17" stroke="#ffffff" stroke-opacity="0.65" stroke-width="1.4"/>
<text x="120.0" y="148.0" text-anchor="middle" font-family="Poppins, Arial, sans-serif" font-size="11.5" font-weight="600" fill="#ffffff" opacity="1.0">Warehouse &amp; Store</text>
<text x="120.0" y="161.0" text-anchor="middle" font-family="Poppins, Arial, sans-serif" font-size="9.5" font-weight="400" fill="#ffffff" opacity="0.88">orders · stock · deliveries</text>
<rect x="250.0" y="119.0" width="140" height="52" rx="10" fill="#ffffff" fill-opacity="0.17" stroke="#ffffff" stroke-opacity="0.65" stroke-width="1.4"/>
<circle cx="268.0" cy="145" r="3" stroke="#ffffff" stroke-width="1.6" fill="none" stroke-linecap="round" stroke-linejoin="round"/><path d="M268.0,137 v3 M268.0,150 v3 M260.0,145 h3 M273.0,145 h3 M262.3,139.3 l2.1,2.1 M271.6,148.6 l2.1,2.1 M273.7,139.3 l-2.1,2.1 M264.4,148.6 l-2.1,2.1" stroke="#ffffff" stroke-width="1.6" fill="none" stroke-linecap="round" stroke-linejoin="round"/>
<text x="284.0" y="143.0" text-anchor="start" font-family="Poppins, Arial, sans-serif" font-size="12" font-weight="600" fill="#ffffff" opacity="1.0">Spark Processing</text>
<text x="284.0" y="157.0" text-anchor="start" font-family="Poppins, Arial, sans-serif" font-size="9.5" font-weight="400" fill="#ffffff" opacity="0.88">features at scale</text>
<polyline points="192.0,145.0 248.0,145.0" fill="none" stroke="#ffffff" stroke-opacity="0.9" stroke-width="1.8" marker-end="url(#arrow)"/>
<rect x="435.0" y="119.0" width="150" height="52" rx="10" fill="#ffffff" fill-opacity="0.3" stroke="#ffffff" stroke-opacity="0.65" stroke-width="1.4"/>
<path d="M446.0,152 h14 M448.0,150 v-6 M453.0,150 v-10 M458.0,150 v-3" stroke="#ffffff" stroke-width="1.6" fill="none" stroke-linecap="round" stroke-linejoin="round"/>
<text x="469.0" y="143.0" text-anchor="start" font-family="Poppins, Arial, sans-serif" font-size="12" font-weight="600" fill="#ffffff" opacity="1.0">Forecast Models</text>
<text x="469.0" y="157.0" text-anchor="start" font-family="Poppins, Arial, sans-serif" font-size="9.5" font-weight="400" fill="#ffffff" opacity="0.88">delivery time · inventory</text>
<polyline points="392.0,145.0 433.0,145.0" fill="none" stroke="#ffffff" stroke-opacity="0.9" stroke-width="1.8" marker-end="url(#arrow)"/>
<rect x="635.0" y="119.0" width="130" height="52" rx="10" fill="#ffffff" fill-opacity="0.17" stroke="#ffffff" stroke-opacity="0.65" stroke-width="1.4"/>
<path d="M646.0,152 h14 M648.0,150 v-6 M653.0,150 v-10 M658.0,150 v-3" stroke="#ffffff" stroke-width="1.6" fill="none" stroke-linecap="round" stroke-linejoin="round"/>
<text x="669.0" y="143.0" text-anchor="start" font-family="Poppins, Arial, sans-serif" font-size="12" font-weight="600" fill="#ffffff" opacity="1.0">Planning Views</text>
<text x="669.0" y="157.0" text-anchor="start" font-family="Poppins, Arial, sans-serif" font-size="9.5" font-weight="400" fill="#ffffff" opacity="0.88">per warehouse / store</text>
<polyline points="587.0,145.0 633.0,145.0" fill="none" stroke="#ffffff" stroke-opacity="0.9" stroke-width="1.8" marker-end="url(#arrow)"/>
<rect x="30" y="250" width="748" height="180" rx="14" fill="#ffffff" fill-opacity="0.06" stroke="#ffffff" stroke-opacity="0.45" stroke-width="1.2" stroke-dasharray="6 5"/>
<text x="44.0" y="268.0" text-anchor="start" font-family="Poppins, Arial, sans-serif" font-size="9.5" font-weight="700" fill="#ffffff" opacity="0.85" letter-spacing="1.2">LOGISTICS RAG</text>
<circle cx="70" cy="321" r="9" stroke="#ffffff" stroke-width="1.8" fill="none" stroke-linecap="round" stroke-linejoin="round"/><path d="M54,347 a16,16 0 0 1 32,0" stroke="#ffffff" stroke-width="1.8" fill="none" stroke-linecap="round" stroke-linejoin="round"/>
<text x="70.0" y="365.0" text-anchor="middle" font-family="Poppins, Arial, sans-serif" font-size="11.5" font-weight="600" fill="#ffffff" opacity="1.0">Logistics Team</text>
<rect x="190.0" y="309.0" width="140" height="52" rx="10" fill="#ffffff" fill-opacity="0.3" stroke="#ffffff" stroke-opacity="0.65" stroke-width="1.4"/>
<rect x="202.0" y="329" width="12" height="12" rx="2" stroke="#ffffff" stroke-width="1.6" fill="none" stroke-linecap="round" stroke-linejoin="round"/><path d="M206.0,329 v-3 M210.0,329 v-3 M206.0,341 v3 M210.0,341 v3 M202.0,333 h-3 M202.0,337 h-3 M214.0,333 h3 M214.0,337 h3" stroke="#ffffff" stroke-width="1.6" fill="none" stroke-linecap="round" stroke-linejoin="round"/>
<text x="224.0" y="333.0" text-anchor="start" font-family="Poppins, Arial, sans-serif" font-size="12" font-weight="600" fill="#ffffff" opacity="1.0">RAG Service</text>
<text x="224.0" y="347.0" text-anchor="start" font-family="Poppins, Arial, sans-serif" font-size="9.5" font-weight="400" fill="#ffffff" opacity="0.88">LangGraph · LLM</text>
<polyline points="96.0,335.0 188.0,335.0" fill="none" stroke="#ffffff" stroke-opacity="0.9" stroke-width="1.8" marker-end="url(#arrow)"/>
<text x="142.0" y="301.0" text-anchor="middle" font-family="Poppins, Arial, sans-serif" font-size="9.5" font-weight="500" fill="#ffffff" opacity="0.95">where is this truck?</text>
<path d="M395.0,309.0 v52 a65.0,7 0 0 0 130,0 v-52" fill="#ffffff" fill-opacity="0.17" stroke="#ffffff" stroke-opacity="0.65" stroke-width="1.4"/>
<ellipse cx="460" cy="309.0" rx="65.0" ry="7" fill="#ffffff" fill-opacity="0.17" stroke="#ffffff" stroke-opacity="0.65" stroke-width="1.4"/>
<text x="460.0" y="338.0" text-anchor="middle" font-family="Poppins, Arial, sans-serif" font-size="11.5" font-weight="600" fill="#ffffff" opacity="1.0">Shipment Data</text>
<text x="460.0" y="351.0" text-anchor="middle" font-family="Poppins, Arial, sans-serif" font-size="9.5" font-weight="400" fill="#ffffff" opacity="0.88">tracking · ETA</text>
<polyline points="332.0,335.0 393.0,335.0" fill="none" stroke="#ffffff" stroke-opacity="0.9" stroke-width="1.8" marker-end="url(#arrow)"/>
<text x="362.0" y="301.0" text-anchor="middle" font-family="Poppins, Arial, sans-serif" font-size="9.5" font-weight="500" fill="#ffffff" opacity="0.95">lookup</text>
<rect x="590.0" y="309.0" width="140" height="52" rx="10" fill="#ffffff" fill-opacity="0.17" stroke="#ffffff" stroke-opacity="0.65" stroke-width="1.4"/>
<path d="M602.0,327 h8 l4,4 v12 h-12 z" stroke="#ffffff" stroke-width="1.6" fill="none" stroke-linecap="round" stroke-linejoin="round"/><path d="M605.0,335 h6 M605.0,339 h6" stroke="#ffffff" stroke-width="1.6" fill="none" stroke-linecap="round" stroke-linejoin="round"/>
<text x="624.0" y="333.0" text-anchor="start" font-family="Poppins, Arial, sans-serif" font-size="12" font-weight="600" fill="#ffffff" opacity="1.0">Real-time Answer</text>
<text x="624.0" y="347.0" text-anchor="start" font-family="Poppins, Arial, sans-serif" font-size="9.5" font-weight="400" fill="#ffffff" opacity="0.88">location · ETA</text>
<polyline points="527.0,335.0 588.0,335.0" fill="none" stroke="#ffffff" stroke-opacity="0.9" stroke-width="1.8" marker-end="url(#arrow)"/>
<rect x="360.0" y="387.0" width="400" height="36" rx="10" fill="#ffffff" fill-opacity="0.17" stroke="#ffffff" stroke-opacity="0.65" stroke-width="1.4"/>
<circle cx="378.0" cy="405" r="3" stroke="#ffffff" stroke-width="1.6" fill="none" stroke-linecap="round" stroke-linejoin="round"/><path d="M378.0,397 v3 M378.0,410 v3 M370.0,405 h3 M383.0,405 h3 M372.3,399.3 l2.1,2.1 M381.6,408.6 l2.1,2.1 M383.7,399.3 l-2.1,2.1 M374.4,408.6 l-2.1,2.1" stroke="#ffffff" stroke-width="1.6" fill="none" stroke-linecap="round" stroke-linejoin="round"/>
<text x="394.0" y="409.5" text-anchor="start" font-family="Poppins, Arial, sans-serif" font-size="12" font-weight="600" fill="#ffffff" opacity="1.0">Docker · Kubernetes · Airflow · AWS / GCP</text>

  </g>
</svg>
